<?xml version="1.0" encoding="utf-8"?>
<!-- Generator: Adobe Illustrator 21.0.2, SVG Export Plug-In . SVG Version: 6.00 Build 0)  -->
<svg version="1.1" id="Layer_1" xmlns="http://www.w3.org/2000/svg" xmlns:xlink="http://www.w3.org/1999/xlink" x="0px" y="0px"
	 viewBox="0 0 97.1 105.6" style="enable-background:new 0 0 97.1 105.6;" xml:space="preserve">
<style type="text/css">
	.st0{fill:#63605F;}
	.st1{fill:#FFFFFF;stroke:#7A7676;stroke-width:2.5;stroke-miterlimit:10;}
</style>
<g>
	<path class="st0" d="M66.5,97.5c-3.6,0-6.5-4.6-11.6-4.6c-1.4,0-3.4,0.2-6.3,2.3c-2.9-2.1-4.9-2.3-6.3-2.3c-5.1,0-8,4.6-11.6,4.6
		c-3.6,0-4.7-1.9-4.7-1.9s1.8,7.8,11.6,7.8c5.8,0,9.5-2.2,11.1-4.4c1.6,2.2,5.3,4.4,11.1,4.4c9.8,0,11.6-7.8,11.6-7.8
		S70.1,97.5,66.5,97.5z"/>
	<path class="st1" d="M59.2,79.3H37.9c-6.6,0-12-5.4-12-12V50.8c0-6.6,5.4-12,12-12h21.3c6.6,0,12,5.4,12,12v16.4
		C71.2,73.9,65.8,79.3,59.2,79.3z"/>
	<path class="st1" d="M69.3,11.1c-1,0-1.9,0.1-2.9,0.2c-4.5-4.8-10.9-7.9-18-7.9c-7.1,0-13.5,3-18,7.8c-0.9-0.1-1.7-0.1-2.6-0.1
		c-13.6,0-24.6,11-24.6,24.6s11,24.6,24.6,24.6c4.4,0,8.5-1.2,12.1-3.2c2.7,1,5.6,1.6,8.7,1.6c3.1,0,6-0.6,8.7-1.6
		c3.6,2,7.7,3.2,12.1,3.2c13.6,0,24.6-11,24.6-24.6S82.8,11.1,69.3,11.1z"/>
</g>
</svg>
