<?xml version="1.0" encoding="utf-8"?>
<!-- Generator: Adobe Illustrator 21.0.2, SVG Export Plug-In . SVG Version: 6.00 Build 0)  -->
<svg version="1.1" id="Layer_1" xmlns="http://www.w3.org/2000/svg" xmlns:xlink="http://www.w3.org/1999/xlink" x="0px" y="0px"
	 viewBox="0 0 149.3 57.3" style="enable-background:new 0 0 149.3 57.3;" xml:space="preserve">
<style type="text/css">
	.st0{fill:#3fb0ac;}
</style>
<g>
	<g>
		<path class="st0" d="M22.5,7.9c0-1.1-0.7-2.7-2.9-2.7c-6.3,0-11.1,9.6-11.1,17.4c0,5.9,2,11.6,7.5,11.6c4.1,0,6.5-2.8,6.6-2.9
			c1.2-2.1,3.6,1.3,2.4,2.5c-0.1,0.1-3.6,4-9.4,4c-6.8,0-10.9-5.9-10.9-15.1c0-9.3,6.1-20.9,15.6-20.9c3.4,0,6.1,2.1,6.1,6.3
			c0,5.9-7.4,11.2-12.7,11.2c-1.1,0-2.1-0.7-2.1-2.3c0-0.7,0.2-1.5,0.5-1.5c0.3,0,0.4,0.5,1.8,0.5C17.4,16,22.5,12,22.5,7.9z"/>
		<path class="st0" d="M28.5,6.4c0-1.4-0.5-1.5-0.5-1.8c0-0.3,0.9-0.5,1.5-0.5c1.6,0,2.6,1,2.6,2.1v15.7c1.3-2.7,3-4.7,5.3-4.7
			c3.2,0,4,2.6,4,4.8v9.9c0,0.4,0,2.2,1.2,2.2c1.9,0,2.8-3.1,3.2-5.2c0.6-2.9,3.2-0.7,2.8,0.9c-0.9,3.2-2.7,7.5-6.8,7.5
			c-2.5,0-4-2.1-4-4.5V23c0-1.5-0.1-2.7-1-2.7c-1.4,0-4.3,4.1-4.7,7.9v7c0,0.9,0,2.1-1.3,2.1c-1,0-2.3-0.3-2.3-2.1V6.4z"/>
		<path class="st0" d="M50,31.1c0.7,1.6,2,3,4.4,3c3.7,0,5.3-3.1,5.8-6c0.4-2.1,3.1-1.2,2.9,0.5c-0.3,2.9-2.2,8.7-9.3,8.7
			c-4.3,0-8.5-3.5-8.5-9.5c0-6.1,3.6-10.6,7.3-10.6c2.7,0,4.3,2,4.3,4.8C57.1,25.5,54.7,29.7,50,31.1z M49.5,28.4
			c2.4-1.1,3.9-3.6,3.9-6.4c0-1.1-0.4-1.7-1-1.7c-2.3,0-3.1,5.3-3,7.3C49.4,27.9,49.5,28.2,49.5,28.4z"/>
		<path class="st0" d="M63.9,21.8v1.1c4.3,5.3,7.1,11,7.1,18.9c0,8-2.5,13.8-6.4,13.8c-3.3,0-4.4-3.6-4.4-7.2V22.7
			c-0.1-0.1-0.2-0.2-0.3-0.3c-0.8-0.8-1.5-1.3-1.5-2.1c0-0.5,0.3-1.1,1.1-1.1c0.1,0,0.4,0,0.7,0V5.5c0-1.4-0.5-1.5-0.5-1.8
			c0-0.3,0.9-0.5,1.5-0.5c1.6,0,2.6,1,2.6,2.1v13.5c2.2-0.2,4.6-0.3,5.9-0.3c1.1,0,2,0.3,2,1.3c0,0.7-0.3,3-0.9,3
			c-0.3,0-0.2-0.5-1.5-0.6L63.9,21.8z M63.9,27.9v20.4c0,1.5,0.2,3.7,1.1,3.7c1.4,0,2.3-4.2,2.3-10.3C67.4,37.4,66.2,32.4,63.9,27.9
			z"/>
		<path class="st0" d="M94.8,37.2c-2.5,0-4-2.1-4-4.5V23c0-1.5-0.1-2.7-0.9-2.7c-1.3,0-4,4.1-4.3,7.9v7c0,0.9,0,2.1-1.3,2.1
			c-1,0-2.3-0.3-2.3-2.1V23c0-1.5-0.1-2.7-0.9-2.7c-1.3,0-4,4.1-4.3,7.9v7c0,0.9,0,2.1-1.3,2.1c-1,0-2.3-0.3-2.3-2.1V19.9
			c0-0.9-0.2-1.2-0.2-1.5c0-0.5,0.6-0.8,1.2-0.8c1.6,0,2.6,1,2.6,2.1v2c1.2-2.6,2.9-4.6,5.1-4.6c2.9,0,3.7,2.3,3.8,4.5
			c1.2-2.5,2.9-4.5,5-4.5c3.1,0,3.8,2.6,3.8,4.8v9.9c0,0.4,0,2.2,1.2,2.2c1.9,0,2.8-3.1,3.2-5.2c0.2-1,0.7-1.4,1.1-1.4
			c0.8,0,1.7,1.1,1.7,2c0,0,0,0.1,0,0.3C100.8,32.9,98.9,37.2,94.8,37.2z"/>
		<path class="st0" d="M98.7,10c0-1.7,1.3-2.9,2.9-2.9c1.7,0,2.9,1.2,2.9,2.9c0,1.6-1.2,2.9-2.9,2.9C100,12.9,98.7,11.5,98.7,10z
			 M102.7,31.8c0,0.4,0,2.2,1.2,2.2c1.9,0,2.8-3.1,3.2-5.2c0.6-2.9,3.2-0.7,2.8,0.9c-0.9,3.2-2.7,7.5-6.8,7.5c-2.5,0-4-2.1-4-4.5
			V19.9c0-0.9-0.2-1.2-0.2-1.5c0-0.5,0.6-0.8,1.2-0.8c1.6,0,2.6,1,2.6,2.1V31.8z"/>
		<path class="st0" d="M107.3,19.9c0-0.9-0.2-1.2-0.2-1.5c0-0.5,0.6-0.8,1.2-0.8c1.6,0,2.6,1,2.6,2.1v2.1c1.3-2.7,3-4.7,5.3-4.7
			c3.2,0,4,2.6,4,4.8v9.9c0,0.4,0,2.2,1.2,2.2c1.9,0,2.8-3.1,3.2-5.2c0.2-1,0.7-1.4,1.1-1.4c0.8,0,1.7,1.1,1.7,2c0,0,0,0.1,0,0.3
			c-0.8,3.2-2.7,7.5-6.8,7.5c-2.5,0-4-2.1-4-4.5V23c0-1.5-0.1-2.7-1-2.7c-1.4,0-4.3,4.1-4.7,7.9v7c0,0.9,0,2.1-1.3,2.1
			c-1,0-2.3-0.3-2.3-2.1V19.9z"/>
		<path class="st0" d="M123.7,29.5c0-7.3,4.4-11.6,9.6-12.3V6.4c0-1.4-0.5-1.5-0.5-1.8c0-0.3,0.9-0.5,1.5-0.5c1.6,0,2.6,1,2.6,2.1
			v25.7c0,1.1,0.5,2.2,1.6,2.2c1.9,0,2.8-3.1,3.2-5.2c0.2-1,0.7-1.4,1.1-1.4c0.8,0,1.7,1.1,1.7,2c0,0,0,0.1,0,0.3
			c-0.8,3.2-2.7,7.5-6.8,7.5c-1.6,0-2.9-0.8-3.6-1.9c-1.1,1.1-2.4,1.9-4.3,1.9C126.2,37.2,123.7,34.5,123.7,29.5z M133.4,32.2V20.4
			c-3.1,0.6-6,2.8-6,8.8c0,3.4,1.5,4.9,3.2,4.9C131.9,34,132.8,33.2,133.4,32.2z"/>
	</g>
</g>
</svg>
